<svg width="132" height="41" viewBox="0 0 132 41" fill="none" xmlns="http://www.w3.org/2000/svg">
<path d="M19.802 10.5942H0V30.3963H19.802V10.5942Z" fill="#005555"/>
<path d="M31.708 30.4058C37.1788 30.4058 41.6137 25.9708 41.6137 20.5C41.6137 15.0292 37.1788 10.5942 31.708 10.5942C26.2372 10.5942 21.8022 15.0292 21.8022 20.5C21.8022 25.9708 26.2372 30.4058 31.708 30.4058Z" fill="#005555"/>
<path d="M53.5196 30.4058C58.9904 30.4058 63.4253 25.9708 63.4253 20.5C63.4253 15.0292 58.9904 10.5942 53.5196 10.5942C48.0488 10.5942 43.6138 15.0292 43.6138 20.5C43.6138 25.9708 48.0488 30.4058 53.5196 30.4058Z" fill="#005555"/>
<path d="M67.863 13.9091H70.26L74.4276 24.0852H74.5811L78.7487 13.9091H81.1457V27H79.2664V17.527H79.145L75.2842 26.9808H73.7245L69.8637 17.5206H69.7423V27H67.863V13.9091ZM88.2954 27.1982C87.3281 27.1982 86.495 26.9915 85.7961 26.5781C85.1015 26.1605 84.5646 25.5746 84.1854 24.8203C83.8104 24.0618 83.6229 23.1733 83.6229 22.1548C83.6229 21.1491 83.8104 20.2628 84.1854 19.4957C84.5646 18.7287 85.093 18.13 85.7706 17.6996C86.4524 17.2692 87.2493 17.054 88.1612 17.054C88.7152 17.054 89.2521 17.1456 89.772 17.3288C90.2919 17.5121 90.7585 17.7997 91.1719 18.1918C91.5852 18.5838 91.9112 19.093 92.1498 19.7195C92.3885 20.3416 92.5078 21.098 92.5078 21.9886V22.6662H84.7031V21.2344H90.6349C90.6349 20.7315 90.5327 20.2862 90.3281 19.8984C90.1236 19.5064 89.8359 19.1974 89.4652 18.9716C89.0987 18.7457 88.6683 18.6328 88.174 18.6328C87.6371 18.6328 87.1683 18.7649 86.7677 19.0291C86.3714 19.2891 86.0646 19.63 85.8473 20.0518C85.6342 20.4695 85.5277 20.9233 85.5277 21.4134V22.532C85.5277 23.1882 85.6427 23.7464 85.8729 24.2067C86.1072 24.6669 86.4332 25.0185 86.8508 25.2614C87.2684 25.5 87.7564 25.6193 88.3146 25.6193C88.6768 25.6193 89.0071 25.5682 89.3054 25.4659C89.6037 25.3594 89.8615 25.2017 90.0788 24.9929C90.2961 24.7841 90.4623 24.5263 90.5774 24.2195L92.3863 24.5455C92.2415 25.0781 91.9815 25.5447 91.6065 25.9453C91.2358 26.3416 90.7692 26.6506 90.2067 26.8722C89.6484 27.0895 89.0113 27.1982 88.2954 27.1982ZM98.5038 27.1918C97.7112 27.1918 97.0038 26.9893 96.3816 26.5845C95.7637 26.1754 95.2779 25.5937 94.9242 24.8395C94.5748 24.081 94.4001 23.1712 94.4001 22.1101C94.4001 21.049 94.5769 20.1413 94.9306 19.3871C95.2886 18.6328 95.7786 18.0554 96.4008 17.6548C97.023 17.2543 97.7282 17.054 98.5166 17.054C99.1259 17.054 99.616 17.1562 99.9867 17.3608C100.362 17.5611 100.652 17.7955 100.856 18.0639C101.065 18.3324 101.227 18.5689 101.342 18.7734H101.457V13.9091H103.368V27H101.502V25.4723H101.342C101.227 25.6811 101.061 25.9197 100.843 26.1882C100.63 26.4567 100.336 26.6911 99.9612 26.8913C99.5862 27.0916 99.1004 27.1918 98.5038 27.1918ZM98.9257 25.5618C99.4754 25.5618 99.9399 25.4169 100.319 25.1271C100.703 24.8331 100.992 24.4261 101.188 23.9062C101.389 23.3864 101.489 22.7812 101.489 22.0909C101.489 21.4091 101.391 20.8125 101.195 20.3011C100.999 19.7898 100.711 19.3913 100.332 19.1058C99.9526 18.8203 99.4839 18.6776 98.9257 18.6776C98.3504 18.6776 97.871 18.8267 97.4874 19.125C97.1039 19.4233 96.8142 19.8303 96.6181 20.3459C96.4264 20.8615 96.3305 21.4432 96.3305 22.0909C96.3305 22.7472 96.4285 23.3374 96.6245 23.8615C96.8205 24.3857 97.1103 24.8011 97.4938 25.108C97.8816 25.4105 98.3589 25.5618 98.9257 25.5618ZM106.296 27V17.1818H108.207V27H106.296ZM107.261 15.6669C106.929 15.6669 106.643 15.5561 106.405 15.3345C106.17 15.1087 106.053 14.8402 106.053 14.5291C106.053 14.2138 106.17 13.9453 106.405 13.7237C106.643 13.4979 106.929 13.3849 107.261 13.3849C107.594 13.3849 107.877 13.4979 108.111 13.7237C108.35 13.9453 108.469 14.2138 108.469 14.5291C108.469 14.8402 108.35 15.1087 108.111 15.3345C107.877 15.5561 107.594 15.6669 107.261 15.6669ZM113.836 27.2173C113.213 27.2173 112.651 27.1023 112.148 26.8722C111.645 26.6378 111.247 26.299 110.953 25.8558C110.663 25.4126 110.518 24.8693 110.518 24.2259C110.518 23.6719 110.625 23.2159 110.838 22.858C111.051 22.5 111.338 22.2166 111.701 22.0078C112.063 21.799 112.468 21.6413 112.915 21.5348C113.363 21.4283 113.819 21.3473 114.283 21.2919C114.871 21.2237 115.348 21.1683 115.715 21.1257C116.081 21.0788 116.348 21.0043 116.514 20.902C116.68 20.7997 116.763 20.6335 116.763 20.4034V20.3587C116.763 19.8004 116.605 19.3679 116.29 19.0611C115.979 18.7543 115.515 18.6009 114.897 18.6009C114.253 18.6009 113.746 18.7436 113.375 19.0291C113.009 19.3104 112.755 19.6236 112.615 19.9688L110.819 19.5597C111.032 18.9631 111.343 18.4815 111.752 18.1151C112.165 17.7443 112.64 17.4759 113.177 17.3097C113.714 17.1392 114.279 17.054 114.871 17.054C115.263 17.054 115.679 17.1009 116.118 17.1946C116.561 17.2841 116.974 17.4503 117.358 17.6932C117.745 17.9361 118.063 18.2834 118.31 18.7351C118.557 19.1825 118.681 19.7642 118.681 20.4801V27H116.814V25.6577H116.738C116.614 25.9048 116.429 26.1477 116.181 26.3864C115.934 26.625 115.617 26.8232 115.229 26.9808C114.841 27.1385 114.377 27.2173 113.836 27.2173ZM114.251 25.6832C114.779 25.6832 115.231 25.5788 115.606 25.37C115.985 25.1612 116.273 24.8885 116.469 24.5518C116.669 24.2109 116.77 23.8466 116.77 23.4588V22.1932C116.701 22.2614 116.569 22.3253 116.373 22.3849C116.181 22.4403 115.962 22.4893 115.715 22.532C115.468 22.5703 115.227 22.6065 114.993 22.6406C114.758 22.6705 114.562 22.696 114.404 22.7173C114.034 22.7642 113.695 22.843 113.388 22.9538C113.086 23.0646 112.843 23.2244 112.659 23.4332C112.48 23.6378 112.391 23.9105 112.391 24.2514C112.391 24.7244 112.566 25.0824 112.915 25.3253C113.265 25.5639 113.71 25.6832 114.251 25.6832ZM123.338 21.1705V27H121.426V17.1818H123.261V18.7798H123.382C123.608 18.2599 123.962 17.8423 124.443 17.527C124.929 17.2116 125.541 17.054 126.278 17.054C126.947 17.054 127.533 17.1946 128.036 17.4759C128.539 17.7528 128.929 18.1662 129.206 18.7159C129.483 19.2656 129.621 19.9453 129.621 20.755V27H127.71V20.9851C127.71 20.2734 127.524 19.7173 127.154 19.3168C126.783 18.9119 126.274 18.7095 125.626 18.7095C125.183 18.7095 124.789 18.8054 124.443 18.9972C124.103 19.1889 123.832 19.4702 123.632 19.8409C123.436 20.2074 123.338 20.6506 123.338 21.1705Z" fill="#005555"/>
</svg>
